<?xml version="1.0" encoding="UTF-8" standalone="no"?>
<svg
  xmlns:dc="http://purl.org/dc/elements/1.1/"
  xmlns:cc="http://creativecommons.org/ns#"
  xmlns:rdf="http://www.w3.org/1999/02/22-rdf-syntax-ns#"
  xmlns:svg="http://www.w3.org/2000/svg"
  xmlns="http://www.w3.org/2000/svg"
  viewBox="0 0 58.75 65.025627"
  height="65.025627"
  width="58.75"
  xml:space="preserve"
  version="1.1"
  id="svg2">
  <metadata id="metadata8">
    <rdf:RDF>
      <cc:Work rdf:about="">
        <dc:format>image/svg+xml</dc:format>
        <dc:type rdf:resource="http://purl.org/dc/dcmitype/StillImage" />
      </cc:Work>
    </rdf:RDF>
  </metadata>
  <defs id="defs6" />
  <g transform="matrix(1.25,0,0,-1.25,0,65.025625)" id="g10">
    <g transform="translate(22.8474,48.6882)" id="g12">
     <path
      id="path14"
      style="fill:#a18e31;fill-opacity:1;fill-rule:nonzero;stroke:none"
      d="m 0,0 -22.436,2.564 2.697,-6.03 19.733,-2.393 20.874,2.498 2.897,6.174 L 0,0 Z" />
    </g>
    <g transform="translate(22.9356,6.6627)" id="g16">
      <path
        id="path18"
        style="fill:#a18e31;fill-opacity:1;fill-rule:nonzero;stroke:none"
        d="m 0,0 -2.696,0.383 2.793,-6.2 2.904,6.2 L 0,0 Z" />
    </g>
    <g transform="translate(22.999,32.3188)" id="g20">
      <path
        id="path22"
        style="fill:#a18e31;fill-opacity:1;fill-rule:nonzero;stroke:none"
        d="M 0,0 -14.869,1.755 -17.672,7.972 -0.009,5.819 18.444,8.141 15.539,1.899 0,0 Z" />
    </g>
    <g transform="translate(22.8291,21.7842)" id="g24">
      <path
        id="path26"
        style="fill:#a18e31;fill-opacity:1;fill-rule:nonzero;stroke:none"
        d="M 0,0 -9.729,1.229 -12.478,7.357 0,5.816 13.417,7.467 10.522,1.269 0,0 Z" />
    </g>
    <g transform="translate(22.8145,11.2725)" id="g28">
      <path
        id="path30"
        style="fill:#a18e31;fill-opacity:1;fill-rule:nonzero;stroke:none"
        d="M 0,0 -4.742,0.591 -7.492,6.77 0,5.819 8.225,6.812 5.356,0.638 0,0 Z" />
    </g>
  </g>
</svg>
