<?xml version="1.0" encoding="UTF-8" standalone="no"?>
<svg
  xmlns:dc="http://purl.org/dc/elements/1.1/"
  xmlns:cc="http://creativecommons.org/ns#"
  xmlns:rdf="http://www.w3.org/1999/02/22-rdf-syntax-ns#"
  xmlns:svg="http://www.w3.org/2000/svg"
  xmlns="http://www.w3.org/2000/svg"
  viewBox="0 0 296.51251 60.73"
  height="60.73"
  width="296.51251"
  xml:space="preserve"
  version="1.1"
  id="svg2">
  <metadata id="metadata8">
    <rdf:RDF>
      <cc:Work rdf:about="">
        <dc:format>image/svg+xml</dc:format>
        <dc:type rdf:resource="http://purl.org/dc/dcmitype/StillImage" />
      </cc:Work>
    </rdf:RDF>
  </metadata>
  <defs id="defs6">
    <clipPath id="clipPath16" clipPathUnits="userSpaceOnUse">
      <path id="path18" d="m 0,48.584 237.21,0 L 237.21,0 0,0 0,48.584 Z" />
    </clipPath>
   </defs>
   <g transform="matrix(1.25,0,0,-1.25,0,60.73)" id="g10">
    <g id="g12">
      <g clip-path="url(#clipPath16)" id="g14">
        <g transform="translate(28.2095,24.9141)" id="g20">
          <path
           id="path22"
           style="fill:#a18e31;fill-opacity:1;fill-rule:nonzero;stroke:none"
           d="m 0,0 c 0,-7.533 -4.516,-11.793 -10.604,-11.793 -6.125,0 -10.643,4.26 -10.643,11.793 l 0,20.238 -6.664,0 0,-20.238 c 0,-11.221 7.775,-18.129 17.307,-18.129 9.544,0 17.323,6.908 17.323,18.129 l 0,20.238 L 0,20.238 0,0 Z" />
        </g>
        <g transform="translate(72.0532,19.8457)" id="g24">
          <path
           id="path26"
           style="fill:#a18e31;fill-opacity:1;fill-rule:nonzero;stroke:none"
           d="m 0,0 -24.547,26.299 -2.242,-0.383 0,-38.213 6.489,0 0,25.291 24.57,-26.256 2.225,0.35 0,38.219 L 0,25.307 0,0 Z" />
        </g>
        <g transform="translate(143.2378,45.4004)" id="g28">
          <path
           id="path30"
           style="fill:#a18e31;fill-opacity:1;fill-rule:nonzero;stroke:none"
           d="m 0,0 -18.173,-37.852 7.254,0 12.148,26.188 12.032,-26.188 7.297,0 L 2.185,0.422 0,0 Z" />
        </g>
        <g transform="translate(169.4917,7.5488)" id="g32">
          <path
           id="path34"
           style="fill:#a18e31;fill-opacity:1;fill-rule:nonzero;stroke:none"
           d="m 0,0 28.665,0 0,6.26 -22.051,0 0,9.392 18.801,0 0,6.295 -18.801,0 0,9.358 22.051,0 0,6.299 L 0,37.604 0,0 Z" />
        </g>
        <g transform="translate(214.8892,13.8086)" id="g36">
        <path
           id="path38"
           style="fill:#a18e31;fill-opacity:1;fill-rule:nonzero;stroke:none"
           d="m 0,0 0,31.344 -6.604,0 0,-37.604 28.663,0 0,6.26 L 0,0 Z" />
        </g>
        <g transform="translate(107.6792,39.6543)" id="g40">
          <path
           id="path42"
           style="fill:#a18e31;fill-opacity:1;fill-rule:nonzero;stroke:none"
           d="M 0,0 -19.853,2.387 -22.81,8.52 0.007,5.918 23.162,8.65 20.185,2.387 0,0 Z" />
        </g>
        <g transform="translate(107.936,0.3105)" id="g44">
          <path
           id="path46"
           style="fill:#a18e31;fill-opacity:1;fill-rule:nonzero;stroke:none"
           d="M 0,0 -3.007,6.227 -0.097,5.9 3.006,6.287 0,0 Z" />
        </g>
        <g transform="translate(107.8403,29.8164)" id="g48">
          <path
           id="path50"
           style="fill:#a18e31;fill-opacity:1;fill-rule:nonzero;stroke:none"
           d="M 0,0 -14.983,1.783 -17.991,8.031 -0.001,5.902 18.038,8.084 15.031,1.801 0,0 Z" />
        </g>
        <g transform="translate(107.6792,19.959)" id="g52">
          <path
           id="path54"
           style="fill:#a18e31;fill-opacity:1;fill-rule:nonzero;stroke:none"
           d="M 0,0 -9.784,1.18 -12.801,7.461 0,5.916 13.218,7.479 10.223,1.238 0,0 Z" />
        </g>
        <g transform="translate(107.6792,10.127)" id="g56">
          <path
           id="path58"
           style="fill:#a18e31;fill-opacity:1;fill-rule:nonzero;stroke:none"
           d="M 0,0 -4.754,0.574 -7.776,6.869 0,5.916 8.226,6.898 5.248,0.609 0,0 Z" />
      </g>
     </g>
   </g>
  </g>
</svg>
